<svg width="34" height="34" viewBox="0 0 34 34" fill="none" xmlns="http://www.w3.org/2000/svg">
<circle cx="17" cy="17" r="17" fill="#55C1BB"/>
<path d="M19.228 17.4256C19.8192 16.9631 20.2507 16.3288 20.4625 15.611C20.6742 14.8932 20.6558 14.1277 20.4097 13.4208C20.1636 12.7139 19.7021 12.1009 19.0894 11.667C18.4767 11.2332 17.7432 11 16.9911 11C16.2389 11 15.5054 11.2332 14.8927 11.667C14.28 12.1009 13.8185 12.7139 13.5724 13.4208C13.3263 14.1277 13.3079 14.8932 13.5197 15.611C13.7314 16.3288 14.1629 16.9631 14.7541 17.4256C13.7411 17.8292 12.8573 18.4986 12.1968 19.3624C11.5364 20.2263 11.124 21.2522 11.0036 22.3308C10.9949 22.4095 11.0019 22.4892 11.0242 22.5653C11.0464 22.6413 11.0835 22.7123 11.1333 22.7741C11.234 22.8989 11.3804 22.9789 11.5403 22.9964C11.7002 23.0139 11.8605 22.9675 11.9861 22.8674C12.1116 22.7673 12.192 22.6217 12.2096 22.4627C12.342 21.2905 12.904 20.2079 13.7883 19.4217C14.6725 18.6356 15.817 18.201 17.0031 18.201C18.1892 18.201 19.3337 18.6356 20.218 19.4217C21.1022 20.2079 21.6643 21.2905 21.7967 22.4627C21.8131 22.61 21.8838 22.7461 21.9951 22.8447C22.1065 22.9432 22.2506 22.9973 22.3996 22.9964H22.466C22.624 22.9783 22.7685 22.8988 22.8679 22.7753C22.9673 22.6517 23.0135 22.4941 22.9966 22.3368C22.8757 21.2551 22.4611 20.2266 21.7972 19.3614C21.1333 18.4962 20.2452 17.827 19.228 17.4256ZM16.9911 16.9998C16.514 16.9998 16.0477 16.8592 15.6511 16.5956C15.2545 16.332 14.9453 15.9574 14.7628 15.5191C14.5802 15.0808 14.5325 14.5986 14.6255 14.1333C14.7186 13.668 14.9483 13.2406 15.2856 12.9051C15.6229 12.5697 16.0527 12.3412 16.5205 12.2487C16.9884 12.1561 17.4733 12.2036 17.914 12.3852C18.3547 12.5667 18.7314 12.8742 18.9964 13.2686C19.2615 13.6631 19.4029 14.1268 19.4029 14.6012C19.4029 15.2374 19.1488 15.8475 18.6965 16.2973C18.2442 16.7471 17.6307 16.9998 16.9911 16.9998Z" fill="#F3F9FC"/>
</svg>
