<svg width="24" height="25" viewBox="0 0 24 25" fill="none" xmlns="http://www.w3.org/2000/svg">
<circle cx="12" cy="12.5005" r="10" transform="rotate(-90 12 12.5005)" fill="#929292"/>
<g clip-path="url(#clip0_392_1396)">
<path fill-rule="evenodd" clip-rule="evenodd" d="M9.05636 9.89872C9.15226 9.80282 9.28233 9.74894 9.41795 9.74894C9.55357 9.74894 9.68364 9.80282 9.77954 9.89872L11.8285 11.9477L13.8775 9.89872C13.9734 9.80282 14.1035 9.74893 14.2391 9.74896C14.3748 9.74893 14.5048 9.80282 14.6007 9.89872C14.6966 9.99462 14.7505 10.1247 14.7505 10.2603C14.7505 10.3959 14.6966 10.526 14.6007 10.6219L12.5517 12.6709L14.6007 14.7199C14.6966 14.8158 14.7505 14.9459 14.7505 15.0815C14.7505 15.2171 14.6966 15.3472 14.6007 15.4431C14.5048 15.539 14.3748 15.5929 14.2391 15.5928C14.1035 15.5929 13.9734 15.539 13.8775 15.4431L11.8285 13.3941L9.77954 15.4431C9.68364 15.539 9.55357 15.5929 9.41795 15.5929C9.28233 15.5929 9.15226 15.539 9.05636 15.4431C8.96046 15.3472 8.90659 15.2171 8.90659 15.0815C8.90659 14.9459 8.96046 14.8158 9.05636 14.7199L11.1054 12.6709L9.05636 10.6219C8.96046 10.526 8.90658 10.3959 8.90658 10.2603C8.90658 10.1247 8.96046 9.99462 9.05636 9.89872Z" fill="white" stroke="white" stroke-width="0.5"/>
</g>
<defs>
<clipPath id="clip0_392_1396">
<rect width="10.9091" height="10.9091" fill="white" transform="translate(6.54492 17.9551) rotate(-90)"/>
</clipPath>
</defs>
</svg>
