<svg width="17" height="20" viewBox="0 0 17 20" fill="none" xmlns="http://www.w3.org/2000/svg">
<path d="M15.7273 8.36364C15.7273 14.0909 8.36364 19 8.36364 19C8.36364 19 1 14.0909 1 8.36364C1 6.41068 1.77581 4.53771 3.15676 3.15676C4.53771 1.77581 6.41068 1 8.36364 1C10.3166 1 12.1896 1.77581 13.5705 3.15676C14.9515 4.53771 15.7273 6.41068 15.7273 8.36364Z" stroke="#038986" stroke-width="1.5" stroke-linecap="round" stroke-linejoin="round"/>
<path d="M8.3636 10C9.71921 10 10.8181 8.9011 10.8181 7.54549C10.8181 6.18988 9.71921 5.09094 8.3636 5.09094C7.008 5.09094 5.90906 6.18988 5.90906 7.54549C5.90906 8.9011 7.008 10 8.3636 10Z" stroke="#038986" stroke-width="1.5" stroke-linecap="round" stroke-linejoin="round"/>
</svg>
