<svg width="35" height="35" viewBox="0 0 35 35" fill="none" xmlns="http://www.w3.org/2000/svg">
<rect y="0.000488281" width="35" height="35" rx="5" fill="#C4C4C4"/>
<path d="M17.5 8.75049C12.6674 8.75049 8.75 12.6679 8.75 17.5005C8.75 22.3331 12.6674 26.2505 17.5 26.2505C22.3326 26.2505 26.25 22.3331 26.25 17.5005C26.25 12.6679 22.3326 8.75049 17.5 8.75049ZM17.5 10.5005C21.3658 10.5005 24.5 13.6347 24.5 17.5005C24.5 21.3662 21.3658 24.5005 17.5 24.5005C13.6343 24.5005 10.5 21.3662 10.5 17.5005C10.5 13.6347 13.6343 10.5005 17.5 10.5005ZM17.5 13.1255C16.3013 13.1255 15.2591 13.9235 14.9572 15.0671C14.8339 15.5344 15.1191 16.0375 15.5855 16.1609C16.0528 16.2842 16.5288 15.999 16.6521 15.5317C16.7528 15.152 17.1001 14.8755 17.5 14.8755C17.9821 14.8755 18.3733 15.264 18.375 15.7505C18.3768 16.1687 18.1458 16.6062 17.6916 17.063C17.5744 17.1802 17.4283 17.2949 17.2813 17.4182C17.2078 17.4804 16.9934 17.658 16.9531 17.6921C16.5839 18.0036 16.5323 18.5802 16.8438 18.9495C17.1553 19.3196 17.7048 19.3432 18.074 19.0317C18.1003 19.0099 18.3426 18.8322 18.4293 18.7587C18.613 18.6039 18.7644 18.4516 18.9219 18.2932C19.6735 17.539 20.1285 16.7209 20.125 15.7505C20.1198 14.3015 18.9481 13.1255 17.5 13.1255ZM17.5 20.1255C17.017 20.1255 16.625 20.5175 16.625 21.0005C16.625 21.4835 17.017 21.8755 17.5 21.8755C17.983 21.8755 18.375 21.4835 18.375 21.0005C18.375 20.5175 17.983 20.1255 17.5 20.1255Z" fill="#545454"/>
</svg>
