<svg width="24" height="25" viewBox="0 0 24 25" fill="none" xmlns="http://www.w3.org/2000/svg">
<path d="M3.69231 9.73065C3.87592 9.73065 4.05201 9.65771 4.18184 9.52787C4.31168 9.39804 4.38462 9.22195 4.38462 9.03834L4.38462 6.96142C4.38462 6.41058 4.60343 5.88231 4.99293 5.49281C5.38243 5.10331 5.9107 4.88449 6.46154 4.88449L8.53846 4.88449C8.72207 4.88449 8.89817 4.81155 9.028 4.68172C9.15783 4.55189 9.23077 4.3758 9.23077 4.19219C9.23077 4.00857 9.15783 3.83248 9.028 3.70265C8.89817 3.57282 8.72207 3.49988 8.53846 3.49988L6.46154 3.49988C5.54382 3.50098 4.664 3.86603 4.01508 4.51495C3.36615 5.16388 3.0011 6.0437 3 6.96142L3 9.03834C3 9.22195 3.07294 9.39804 3.20277 9.52787C3.33261 9.65771 3.5087 9.73065 3.69231 9.73065Z" fill="#4BAEC5"/>
<path d="M6.46154 21.4999H8.53846C8.72207 21.4999 8.89816 21.427 9.028 21.2972C9.15783 21.1673 9.23077 20.9912 9.23077 20.8076C9.23077 20.624 9.15783 20.4479 9.028 20.3181C8.89816 20.1883 8.72207 20.1153 8.53846 20.1153H6.46154C5.9107 20.1153 5.38243 19.8965 4.99293 19.507C4.60343 19.1175 4.38462 18.5892 4.38462 18.0384V15.9615C4.38462 15.7779 4.31168 15.6018 4.18184 15.4719C4.05201 15.3421 3.87592 15.2692 3.69231 15.2692C3.5087 15.2692 3.33261 15.3421 3.20277 15.4719C3.07294 15.6018 3 15.7779 3 15.9615V18.0384C3.0011 18.9561 3.36615 19.8359 4.01508 20.4849C4.664 21.1338 5.54382 21.4988 6.46154 21.4999Z" fill="#4BAEC5"/>
<path d="M17.5385 3.49988H15.4616C15.278 3.49988 15.1019 3.57282 14.9721 3.70265C14.8422 3.83248 14.7693 4.00857 14.7693 4.19219C14.7693 4.3758 14.8422 4.55189 14.9721 4.68172C15.1019 4.81155 15.278 4.88449 15.4616 4.88449H17.5385C18.0894 4.88449 18.6176 5.10331 19.0071 5.49281C19.3966 5.88231 19.6154 6.41058 19.6154 6.96142V9.03834C19.6154 9.22195 19.6884 9.39804 19.8182 9.52787C19.948 9.65771 20.1241 9.73065 20.3077 9.73065C20.4914 9.73065 20.6675 9.65771 20.7973 9.52787C20.9271 9.39804 21.0001 9.22195 21.0001 9.03834V6.96142C20.999 6.0437 20.6339 5.16388 19.985 4.51495C19.3361 3.86603 18.4562 3.50098 17.5385 3.49988Z" fill="#4BAEC5"/>
<path d="M20.3077 15.2692C20.1241 15.2692 19.948 15.3421 19.8182 15.4719C19.6884 15.6018 19.6154 15.7779 19.6154 15.9615L19.6154 18.0384C19.6154 18.5892 19.3966 19.1175 19.0071 19.507C18.6176 19.8965 18.0894 20.1153 17.5385 20.1153L15.4616 20.1153C15.278 20.1153 15.1019 20.1883 14.9721 20.3181C14.8422 20.4479 14.7693 20.624 14.7693 20.8076C14.7693 20.9912 14.8422 21.1673 14.9721 21.2972C15.1019 21.427 15.278 21.4999 15.4616 21.4999L17.5385 21.4999C18.4562 21.4988 19.3361 21.1338 19.985 20.4849C20.6339 19.8359 20.999 18.9561 21.0001 18.0384L21.0001 15.9615C21.0001 15.7779 20.9271 15.6018 20.7973 15.4719C20.6675 15.3421 20.4914 15.2692 20.3077 15.2692Z" fill="#4BAEC5"/>
<path d="M6.46143 12.4999C6.46143 12.6835 6.53437 12.8596 6.6642 12.9895C6.79403 13.1193 6.97012 13.1922 7.15373 13.1922L16.846 13.1922C17.0297 13.1922 17.2057 13.1193 17.3356 12.9895C17.4654 12.8596 17.5384 12.6835 17.5384 12.4999C17.5384 12.3163 17.4654 12.1402 17.3356 12.0104C17.2057 11.8806 17.0297 11.8076 16.846 11.8076L7.15373 11.8076C6.97012 11.8076 6.79403 11.8806 6.6642 12.0104C6.53437 12.1402 6.46143 12.3163 6.46143 12.4999Z" fill="#4BAEC5"/>
</svg>
