<svg width="393" height="311" viewBox="0 0 393 311" fill="none" xmlns="http://www.w3.org/2000/svg">
<g clip-path="url(#clip0_45_4)">
<path d="M378.582 297.734L257.926 297.107H182.987H35.7865C35.7865 297.107 2.12354 254.032 38.091 213.125C75.3616 170.712 94.2925 206.92 121.826 135.456C182.251 -21.4113 418.989 82.7414 344.195 210.619C317.228 256.61 397.187 232.138 378.582 297.734Z" fill="#DAF0F5"/>
<path d="M378.582 299.144C378.582 305.698 301.833 311 207.178 311C112.524 311 35.7868 305.698 35.7868 299.144C35.7868 292.589 112.536 287.275 207.202 287.275C301.869 287.275 378.582 292.589 378.582 299.144Z" fill="#C2CED3"/>
<path d="M151.749 277.082L152.75 295.396L172.055 297.071L163.428 288.685L165.697 276.901L151.749 277.082Z" fill="#FFC7C7"/>
<path d="M154.234 277.515L155.248 294.035L152.207 288.95L152.002 278.359L154.234 277.515Z" fill="#F2A5A9"/>
<path d="M164.635 288.818L172.96 296.65C173.443 297.011 173.093 297.638 172.417 297.638C172.417 297.638 149.625 297.517 149.601 297.216C149.42 295.312 151.664 288.637 152.014 286.914C152.014 286.661 158.047 293.89 159.567 293.324C160.605 292.938 164.321 288.577 164.635 288.818Z" fill="white"/>
<path d="M102.811 276.985L99.6498 295.481L121.211 297.071L111.462 288.227L114.864 278.262L102.811 276.985Z" fill="#FFC7C7"/>
<path d="M107.83 277.13L101.471 288.227L99.8545 288.878L102.135 276.419L107.83 277.13Z" fill="#F2A5A9"/>
<path d="M113.151 288.673L122.309 296.65C122.779 297.011 122.442 297.638 121.754 297.638C121.754 297.638 98.2138 297.517 98.1897 297.216C98.0087 295.312 99.6014 288.336 99.9272 286.613C99.9272 286.36 107.046 292.3 108.638 291.721C109.7 291.348 112.825 288.432 113.151 288.673Z" fill="white"/>
<path d="M137.439 126.745C136.148 127.046 129.271 135.589 126.459 149.325C125.446 154.265 121.742 174.17 115.081 196.666C105.658 228.572 101.266 267.141 100.494 279.805C103.957 280.708 113.766 281.094 115.914 281.01C121.018 264.695 141.252 201.232 150.675 170.579C150.742 170.232 150.942 169.925 151.233 169.722C151.523 169.52 151.881 169.438 152.231 169.495C152.58 169.551 152.894 169.741 153.106 170.024C153.318 170.308 153.411 170.662 153.366 171.013C153.667 203.196 149.613 273.925 151.109 282.323C152.123 282.468 165.503 281.733 167.543 282.323C169.823 255.707 187.825 142.059 164.876 125.684C153.39 125.359 145.583 124.925 137.439 126.745Z" fill="#55C1BA"/>
<path d="M163.307 125.853C163.307 125.853 163.875 128.853 167.929 149.096C173.829 178.568 161.003 281.709 161.003 281.709" stroke="#FBFAF4" stroke-width="0.7" stroke-miterlimit="10"/>
<path d="M141.601 125.287C141.601 125.287 142.929 117.25 128.896 179.002C124.07 199.967 111.848 245.718 106.744 280.395" stroke="#FBFAF4" stroke-width="0.7" stroke-miterlimit="10"/>
<path d="M189.176 61.2698C188.513 60.6915 187.173 64.752 187.149 63.6797C187.125 62.6073 188.356 57.8238 187.535 57.6551C186.715 57.4864 186.063 63.029 185.436 63.0652C184.809 63.1013 186.522 56.8599 186.003 56.5466C184.531 55.667 183.904 62.9929 182.854 62.9206C182.975 63.0531 184.06 56.6912 182.854 56.8358C182.299 56.896 181.334 61.6554 180.549 66.222C180.539 66.2937 180.506 66.3601 180.455 66.4115C180.404 66.4629 180.337 66.4964 180.265 66.5072C180.194 66.518 180.12 66.5055 180.056 66.4715C179.992 66.4375 179.941 66.3838 179.91 66.3184C179.005 64.5834 177.991 62.7037 177.497 63.8363C177.991 72.4755 179.283 74.4395 179.283 74.4395L174.456 104.08C174.275 105.056 173.25 106.02 172.393 105.562C169.449 104.104 148.72 93.9712 149.203 94.5977C149.951 95.5858 158.023 114.985 158.602 114.153C170.426 124.757 182.251 119.503 182.251 119.503C189.876 111.238 186.594 74.5841 186.594 74.5841C187.427 72.4996 189.767 61.8 189.176 61.2698Z" fill="#FFC7C7"/>
<path d="M157.07 82.8981C157.07 82.8981 158.892 79.6087 162.632 82.7776C166.373 85.9465 175.639 101.49 175.639 101.49L166.602 118.479L157.07 82.8981Z" fill="#55C1BA"/>
<path d="M166.529 76.7529L161.86 59.3901C163.211 54.8355 163.139 52.498 162.379 51.1003C160.328 47.2807 157.384 46.136 153.354 45.2323C126.387 39.1355 134.531 76.3191 134.531 76.3191L166.529 76.7529Z" fill="#10192E"/>
<path d="M147.031 58.9925C147.011 59.0355 146.982 59.0738 146.946 59.1049C146.91 59.1359 146.868 59.159 146.822 59.1727C146.777 59.1863 146.729 59.1902 146.682 59.1841C146.635 59.178 146.589 59.162 146.549 59.1371C146.267 58.9077 145.94 58.7395 145.589 58.6432C145.238 58.547 144.871 58.5248 144.511 58.5781C144.151 58.6313 143.807 58.7589 143.499 58.9527C143.191 59.1464 142.927 59.4021 142.724 59.7034C141.397 61.5952 143.255 64.8484 144.884 64.3423C145.234 64.2219 145.39 64.8846 145.475 65.2581C146.205 68.8969 146.461 72.6148 146.235 76.3192C145.957 78.8378 145.23 81.2863 144.087 83.5487C144.087 83.5487 155.694 95.887 160.122 96.9834C162.849 97.6461 159.266 90.6215 159.266 84.1029C159.266 84.1029 156.213 73.6563 155.851 70.5477C157.19 70.2705 162.415 71.9333 163.247 62.535C164.008 53.9439 159.736 51.7751 158.361 51.2329C157.215 50.7509 151.616 49.6786 147.031 58.9925Z" fill="#FFC7C7"/>
<path d="M160.714 50.1725C160.714 50.1725 155.176 59.8118 147.031 58.9925C147.031 58.9925 142.676 44.2202 160.714 50.1725Z" fill="#10192E"/>
<path d="M156.925 49.3051C158.298 51.8413 160.238 54.0268 162.596 55.6911C162.596 55.6911 163.332 47.1242 156.925 49.3051Z" fill="#10192E"/>
<path d="M158.252 80.4883C154.018 81.1535 149.692 80.9361 145.547 79.8497C145.156 81.0911 144.668 82.2998 144.087 83.4645C144.087 83.4645 155.694 95.8028 160.122 96.8992C162.849 97.5619 159.266 90.5373 159.266 84.0187C159.266 84.0669 158.855 82.5367 158.252 80.4883Z" fill="#FCF4E3" stroke="#FCF4E3" stroke-width="1.02" stroke-miterlimit="10"/>
<path d="M156.02 70.5117L150.385 69.3068L154.367 72.3552C154.516 72.5474 154.727 72.6826 154.964 72.7381C155.201 72.7937 155.45 72.7662 155.669 72.6603C155.888 72.5544 156.064 72.3766 156.167 72.1565C156.271 71.9364 156.295 71.6875 156.237 71.4515L156.02 70.5117Z" fill="#F2A5A9"/>
<g style="mix-blend-mode:multiply" opacity="0.28">
<path d="M148.407 172.544L118.448 185.798C119.606 176.759 121.738 167.871 124.806 159.29L148.407 172.544Z" fill="#1E274D"/>
</g>
<g style="mix-blend-mode:multiply" opacity="0.28">
<path d="M176.097 174.929L153.438 182.352C153.195 174.208 153.485 166.058 154.306 157.952L176.097 174.929Z" fill="#1E274D"/>
</g>
<path d="M133.24 86.1874C135.07 83.8825 137.401 82.0241 140.057 80.7533C140.986 80.1146 145.378 79.5483 145.378 79.5483L158.24 90.5733C159.181 89.8383 159.447 81.7654 159.447 81.7654C159.205 82.404 167.301 93.1518 168.532 99.2969C169.739 105.092 181.466 172.953 181.466 175.206L119.172 173.507C119.172 173.507 130.67 93.9952 133.24 86.1874Z" fill="#55C1BA"/>
<g style="mix-blend-mode:soft-light" opacity="0.82">
<path d="M140.649 89.4768L154.596 175.375L118.749 173.76C119.136 184.219 127.581 120.901 130.598 108.298C135.207 88.9587 140.552 94.2844 140.649 89.4768Z" fill="#002439"/>
</g>
<path d="M146.15 61.5711C144.558 57.8841 143.255 60.8482 143.255 60.8482L146.15 61.5711Z" fill="#F2A5A9"/>
<path d="M152.823 61.7398C153.162 61.8175 153.471 61.9939 153.71 62.2468C153.949 62.4996 154.108 62.8176 154.166 63.1605C154.224 63.5034 154.179 63.8558 154.037 64.1732C153.895 64.4906 153.661 64.7588 153.366 64.9439C153.072 65.1289 152.729 65.2226 152.38 65.213C152.032 65.2034 151.695 65.091 151.411 64.8899C151.127 64.6889 150.908 64.4082 150.784 64.0835C150.659 63.7587 150.634 63.4043 150.711 63.0652C150.762 62.8396 150.858 62.6263 150.992 62.4375C151.126 62.2488 151.295 62.0882 151.492 61.9651C151.688 61.842 151.906 61.7587 152.135 61.7201C152.363 61.6814 152.597 61.6881 152.823 61.7398Z" fill="#F7A4AB"/>
<path d="M162.873 65.0774C162.541 65.2141 162.174 65.2436 161.823 65.1618C161.4 65.0312 161.041 64.7457 160.818 64.3624C160.596 63.9791 160.527 63.5261 160.624 63.094C160.722 62.6619 160.979 62.2824 161.344 62.0313C161.71 61.7803 162.157 61.6762 162.596 61.7398C162.826 61.7846 163.045 61.8792 163.235 62.0169C163.213 63.0463 163.092 64.0712 162.873 65.0774Z" fill="#F7A4AB"/>
<path d="M159.447 64.0532H155.622C155.622 64.0532 156.551 65.8967 157.661 65.716C158.771 65.5353 159.447 64.0532 159.447 64.0532Z" fill="white"/>
<path d="M157.492 60.788L157.178 63.3183H158.47C158.524 63.3159 158.577 63.3001 158.623 63.2722C158.67 63.2443 158.708 63.2052 158.736 63.1585C158.764 63.1118 158.779 63.059 158.781 63.0049C158.783 62.9507 158.771 62.8969 158.747 62.8484L157.492 60.788Z" fill="#F2A5A9"/>
<path d="M154.029 58.2696C153.595 58.5227 154.331 57.2696 154.91 57.1611C155.489 57.0527 156.322 57.1611 156.285 57.619C156.249 58.0768 155.103 57.631 154.029 58.2696Z" fill="black"/>
<path d="M161.148 58.378C161.546 58.7033 160.991 57.3538 160.436 57.1731C159.881 56.9924 159.084 57.0165 159.133 57.7033C159.181 58.3901 160.195 57.5707 161.148 58.378Z" fill="black"/>
<path d="M155.308 60.7035C155.308 61.1493 155.453 61.4987 155.67 61.5108C155.887 61.5228 156.068 61.1613 156.08 60.7276C156.092 60.2938 155.923 59.9203 155.706 59.9203C155.489 59.9203 155.32 60.2697 155.308 60.7035Z" fill="black"/>
<path d="M158.855 60.5469C158.855 60.9686 159 61.318 159.205 61.318C159.41 61.318 159.591 60.9927 159.591 60.571C159.591 60.1492 159.447 59.7998 159.241 59.7998C159.036 59.7998 158.855 60.1251 158.855 60.5469Z" fill="black"/>
<path d="M117.434 101.839L136.836 112.683C136.836 112.683 151.109 83.7655 140.057 81.0665C129.005 78.3675 117.434 101.839 117.434 101.839Z" fill="#55C1BA"/>
<path d="M159.483 128.263L159.326 128.01C159.178 127.766 158.982 127.553 158.751 127.385C158.52 127.216 158.258 127.095 157.98 127.027C157.702 126.96 157.414 126.949 157.131 126.993C156.849 127.038 156.578 127.137 156.334 127.287L158.747 131.251C158.993 131.104 159.206 130.909 159.376 130.679C159.546 130.449 159.669 130.188 159.737 129.91C159.806 129.632 159.819 129.344 159.775 129.061C159.731 128.778 159.632 128.507 159.483 128.263ZM158.047 128.962C157.984 128.854 157.965 128.726 157.994 128.605C158.023 128.483 158.099 128.378 158.204 128.311C158.257 128.279 158.316 128.257 158.377 128.247C158.439 128.238 158.502 128.24 158.562 128.255C158.623 128.269 158.68 128.295 158.73 128.332C158.78 128.369 158.823 128.415 158.856 128.468C158.888 128.521 158.91 128.58 158.919 128.641C158.929 128.702 158.927 128.765 158.912 128.825C158.898 128.886 158.871 128.943 158.834 128.993C158.798 129.043 158.752 129.086 158.699 129.118C158.597 129.186 158.472 129.213 158.351 129.193C158.23 129.173 158.122 129.107 158.047 129.01V128.962Z" fill="#446897"/>
<path d="M163.58 140.234L150.773 119.272C150.064 118.113 148.55 117.746 147.389 118.454L116.882 137.043C115.721 137.75 115.355 139.263 116.063 140.421L128.87 161.383C129.578 162.542 131.093 162.909 132.254 162.202L162.761 143.612C163.922 142.905 164.288 141.393 163.58 140.234Z" fill="#172F4C"/>
<path d="M162.292 136.565L148.458 113.982L117.486 132.904L131.32 155.487L162.292 136.565Z" fill="#A8E6FF"/>
<path d="M145.736 154.558L144.259 152.141L141.839 153.616L143.316 156.033L145.736 154.558Z" fill="#5B94B8"/>
<path d="M154.112 149.483L152.007 146.037L149.586 147.512L151.692 150.958L154.112 149.483Z" fill="#5B94B8"/>
<path d="M148.018 153.197L145.843 149.639L143.423 151.113L145.597 154.672L148.018 153.197Z" fill="white"/>
<path d="M161.658 144.228L157.265 134.456L145.058 139.929L149.452 149.701L161.658 144.228Z" fill="#E6F9FF"/>
<g style="mix-blend-mode:multiply" opacity="0.43">
<path d="M159.869 144.939L159.386 145.168L158.843 142.662L159.869 144.939Z" fill="#6DCAE7"/>
</g>
<path d="M128.836 155.542L118.134 138.035L149.106 119.154L162.475 141.095L135.931 157.265L128.836 155.542Z" fill="white"/>
<path d="M158.53 145.566L157.565 143.409C157.524 143.321 157.501 143.226 157.497 143.129C157.494 143.033 157.509 142.936 157.543 142.846C157.576 142.755 157.628 142.672 157.694 142.601C157.759 142.53 157.838 142.473 157.927 142.433V142.433C158.015 142.393 158.111 142.371 158.208 142.368C158.306 142.365 158.402 142.381 158.493 142.416C158.584 142.451 158.667 142.503 158.738 142.57C158.808 142.637 158.865 142.717 158.904 142.806L160.11 145.481C160.188 145.66 160.193 145.863 160.123 146.045C160.053 146.228 159.914 146.376 159.736 146.457L159.543 146.542C159.362 146.626 159.155 146.636 158.966 146.571C158.777 146.506 158.621 146.37 158.53 146.192L158.301 145.686" stroke="#96C5FF" stroke-width="0.16" stroke-miterlimit="10"/>
<path d="M160.3 133.397L155.354 125.302C154.889 124.541 153.894 124.3 153.132 124.765C152.37 125.229 152.129 126.223 152.594 126.984L157.54 135.079C158.005 135.84 159 136.081 159.762 135.616C160.524 135.152 160.765 134.158 160.3 133.397Z" fill="#F18875"/>
<path d="M130.019 157.47L132.408 156.012L133.856 158.386L130.32 157.916L130.019 157.47Z" fill="#B7CFF4"/>
<path d="M130.308 157.94L132.697 156.482L134.145 158.856L130.308 157.94Z" fill="white"/>
<path d="M158.166 133.832L153.993 127.002L151.809 128.332L155.982 135.162L158.166 133.832Z" fill="#446897"/>
<path d="M155.543 125.623L160.105 133.09C160.38 133.54 160.465 134.081 160.341 134.593C160.217 135.106 159.894 135.548 159.443 135.823L158.413 136.45L151.783 125.599L152.813 124.971C153.264 124.697 153.805 124.612 154.318 124.736C154.831 124.86 155.274 125.183 155.549 125.633L155.543 125.623Z" fill="#5B94B8"/>
<path d="M147.031 135.155L152.389 143.927" stroke="#96C5FF" stroke-width="0.16" stroke-miterlimit="10"/>
<path d="M145.475 136.107L150.844 144.879" stroke="#96C5FF" stroke-width="0.16" stroke-miterlimit="10"/>
<path d="M136.474 128.914L147.9 147.614" stroke="#B7E0F4" stroke-width="0.08" stroke-miterlimit="10"/>
<path d="M147.028 148.308L135.659 129.701L122.249 137.873L133.618 156.479L147.028 148.308Z" stroke="#96C5FF" stroke-width="0.08" stroke-miterlimit="10"/>
<path d="M147.023 148.304L135.655 129.698L134.831 130.2L146.199 148.807L147.023 148.304Z" fill="#55C1BB"/>
<g style="mix-blend-mode:multiply" opacity="0.15">
<path d="M140.744 138.042L138.971 135.141L125.551 143.319L127.323 146.22L140.744 138.042Z" fill="#96C5FF"/>
</g>
<g style="mix-blend-mode:multiply" opacity="0.15">
<path d="M144.503 144.176L142.731 141.276L129.31 149.453L131.083 152.354L144.503 144.176Z" fill="#96C5FF"/>
</g>
<path d="M136.498 135.013L134.374 131.537C134.322 131.451 134.21 131.424 134.125 131.476L134.115 131.483C134.029 131.535 134.002 131.646 134.054 131.731L136.179 135.208C136.231 135.293 136.342 135.32 136.427 135.268L136.438 135.262C136.523 135.21 136.55 135.098 136.498 135.013Z" fill="white"/>
<path d="M137.376 143.685L136.081 141.566C136.029 141.48 135.918 141.454 135.833 141.506L135.822 141.512C135.737 141.564 135.71 141.675 135.762 141.76L137.057 143.879C137.109 143.964 137.22 143.991 137.306 143.939L137.316 143.933C137.401 143.881 137.428 143.77 137.376 143.685Z" fill="#96C5FF"/>
<path d="M135.865 139.014L134.573 136.904C134.521 136.819 134.41 136.792 134.325 136.844L134.315 136.85C134.23 136.902 134.203 137.013 134.255 137.098L135.548 139.208C135.599 139.293 135.711 139.319 135.795 139.268L135.806 139.261C135.891 139.209 135.917 139.098 135.865 139.014Z" fill="#96C5FF"/>
<path d="M134.964 135.963L132.84 132.487C132.788 132.402 132.677 132.375 132.592 132.427L132.581 132.433C132.496 132.485 132.469 132.596 132.521 132.681L134.645 136.158C134.697 136.243 134.809 136.27 134.894 136.218L134.904 136.212C134.99 136.16 135.017 136.049 134.964 135.963Z" fill="white"/>
<path d="M140.963 145.769L139.681 143.67C139.629 143.585 139.518 143.558 139.432 143.61L139.422 143.617C139.337 143.669 139.31 143.78 139.362 143.865L140.644 145.963C140.696 146.048 140.807 146.075 140.892 146.023L140.903 146.017C140.988 145.965 141.015 145.854 140.963 145.769Z" fill="white"/>
<path d="M133.398 136.91L131.274 133.433C131.222 133.348 131.111 133.321 131.025 133.373L131.015 133.379C130.93 133.431 130.903 133.542 130.955 133.628L133.079 137.104C133.131 137.189 133.243 137.216 133.328 137.164L133.338 137.158C133.424 137.106 133.45 136.995 133.398 136.91Z" fill="white"/>
<path d="M131.859 137.849L129.734 134.373C129.682 134.288 129.571 134.261 129.486 134.313L129.475 134.319C129.39 134.371 129.363 134.482 129.415 134.567L131.539 138.044C131.591 138.129 131.703 138.156 131.788 138.104L131.798 138.098C131.884 138.046 131.911 137.935 131.859 137.849Z" fill="white"/>
<path d="M146.488 131.986C147.02 131.662 147.443 131.188 147.704 130.624C147.966 130.059 148.054 129.43 147.958 128.816C147.861 128.202 147.585 127.63 147.163 127.172C146.741 126.715 146.193 126.393 145.588 126.246C144.983 126.1 144.348 126.136 143.763 126.35C143.179 126.563 142.671 126.946 142.303 127.448C141.936 127.95 141.726 128.549 141.7 129.171C141.674 129.792 141.833 130.407 142.157 130.938C142.372 131.291 142.655 131.598 142.989 131.842C143.323 132.086 143.703 132.262 144.105 132.359C144.507 132.456 144.925 132.473 145.334 132.41C145.743 132.346 146.135 132.202 146.488 131.986Z" fill="#55C1BB"/>
<path d="M128.776 144.12C130.005 147.656 131.515 151.088 133.289 154.385C134.145 155.964 137.427 160.543 137.837 160.073C138.248 159.603 134.966 154.639 135.304 154.687C135.641 154.735 138.923 160.073 139.587 159.82C140.251 159.567 136.776 154.747 137.053 154.434C137.331 154.12 140.528 159.615 141.276 159.253C142.024 158.892 138.67 153.506 139.141 153.397C139.611 153.289 142.157 158.675 143.098 158.47C144.039 158.265 140.082 149.289 140.021 148.927C139.961 148.566 144.944 150.012 145.234 149.819C145.523 149.626 144.908 148.457 144.908 148.457C142.169 146.301 142.579 148.783 136.257 141.228L128.318 123.986C126.99 121.576 126.46 121.817 127.98 119.576L133.771 111.069L119.474 102.912L113.006 117.13C112.583 118.328 112.487 119.617 112.729 120.865C112.971 122.112 113.541 123.273 114.382 124.227L128.776 144.12Z" fill="#FFC7C7"/>
<path d="M153.558 102.779H145.462V105.948H153.558V102.779Z" stroke="#FCF4E3" stroke-width="0.44" stroke-miterlimit="10"/>
<path d="M231.852 166.362C232.118 168.206 232.299 169.314 232.299 169.314C232.299 169.314 234.374 179.797 240.877 184.978C241.83 185.737 238.838 183.388 238.838 183.388C238.838 183.388 243.073 186.701 243.882 186.822C244.69 186.942 240.563 183.05 240.563 183.05C240.563 183.05 245.076 187.171 245.909 186.846C246.741 186.521 242.591 181.4 242.591 181.4C242.591 181.4 246.415 186.135 247.272 185.87C248.129 185.605 241.927 172.074 244.135 173.339C244.871 173.761 248.587 177.134 249.721 176.496C250.856 175.857 243.604 167.724 243.604 167.724C243.604 167.724 243.182 164.109 243.206 163.784L231.852 166.362Z" fill="#FFC7C7"/>
<path d="M287.993 281.215L291.673 297.18H316.142V295.252L302.231 287.179L300.517 281.504L287.993 281.215Z" fill="#FFC7C7"/>
<path d="M295.269 281.504L291.673 297.18L287.993 281.215L295.269 281.504Z" fill="#F2A5A9"/>
<path d="M302.436 287.179L298.297 291.601C298.051 291.878 297.751 292.101 297.414 292.256C297.078 292.411 296.713 292.495 296.343 292.503C295.973 292.511 295.605 292.442 295.262 292.302C294.919 292.161 294.61 291.951 294.352 291.685L289.634 286.998L291.878 297.18H316.347V295.252L302.436 287.179Z" fill="white" stroke="white" stroke-miterlimit="10"/>
<path d="M254.427 281.034L250.747 297.011H226.266V295.071L240.189 286.998L241.251 281.323L254.427 281.034Z" fill="#FFC7C7"/>
<path d="M246.681 281.142L254.427 281.034L250.747 297.011L246.681 281.142Z" fill="#F2A5A9"/>
<path d="M239.912 286.998L244.063 291.432C244.31 291.706 244.612 291.926 244.948 292.079C245.284 292.232 245.648 292.315 246.017 292.323C246.386 292.331 246.753 292.264 247.096 292.125C247.438 291.986 247.749 291.779 248.008 291.517L252.714 286.829L250.469 297.011H226V295.071L239.912 286.998Z" fill="white" stroke="white" stroke-miterlimit="10"/>
<path d="M288.427 151.771L301.917 284.588L288.488 284.805L269.46 185.014C268.121 181.869 266.492 183.689 266.19 185.388L253.775 284.697L240.503 283.733C240.503 283.733 239.176 211.643 245.088 150.843L288.427 151.771Z" fill="#002439" stroke="#002439" stroke-width="1.56" stroke-miterlimit="10"/>
<path d="M297.139 109.828C293.085 132.335 291.287 152.554 291.287 152.554L243.025 151.771L238.633 83.3195C244.296 78.4595 251.371 75.5413 258.818 74.9936L274.033 74.5598C274.033 74.5598 281.852 75.6563 288.512 76.7889C294.158 77.7408 296.584 80.0301 299.504 84.9703" fill="#53C0D7"/>
<path opacity="0.05" d="M291.287 152.554L243.025 151.771L238.633 83.3197" fill="#002E55"/>
<path d="M248.877 113.997C248.43 113.551 245.607 171.278 244.195 170.628L231.37 169.941C231.37 169.941 230.73 122.431 233.373 97.3087C233.373 97.3087 235.412 83.2836 240.974 81.8256C246.536 80.3677 248.877 113.997 248.877 113.997Z" fill="#53C0D7"/>
<path d="M247.598 113.997C247.164 113.551 244.931 167.194 243.508 166.567L227.123 163.94C227.123 163.94 229.463 122.467 232.106 97.3449C232.106 97.3449 234.145 83.3197 239.707 81.8618C245.269 80.4038 247.598 113.997 247.598 113.997Z" fill="white" stroke="white" stroke-miterlimit="10"/>
<path d="M273.611 59.3419L276.507 75.4396L267.301 79.8134C267.301 79.8134 261.413 78.9458 258.674 75.7287L260.23 59.848L273.611 59.3419Z" fill="#FFC7C7"/>
<path d="M272.356 44.618L274.009 60.2818C274.009 60.2818 266.854 78.0061 259.711 60.7156L263.042 44.0999L272.356 44.618Z" fill="#F2A5A9"/>
<path d="M255.995 51.4618L258.71 50.7028L259.35 53.944L256.587 54.7633C256.386 54.8164 256.177 54.8267 255.973 54.7935C255.768 54.7603 255.573 54.6844 255.4 54.5706C255.227 54.4569 255.079 54.3079 254.968 54.1335C254.856 53.9591 254.783 53.7631 254.753 53.5584C254.658 53.1169 254.733 52.6559 254.963 52.2674C255.194 51.8788 255.562 51.5912 255.995 51.4618Z" fill="#FFC7C7"/>
<path d="M256.237 52.2812L257.359 51.9679L257.624 53.3053L256.49 53.6186C256.408 53.6398 256.323 53.6436 256.239 53.6297C256.156 53.6158 256.076 53.5846 256.006 53.538C255.935 53.4914 255.875 53.4305 255.83 53.3593C255.785 53.2881 255.755 53.2081 255.742 53.1246C255.707 52.9479 255.737 52.7644 255.829 52.6089C255.92 52.4534 256.065 52.3368 256.237 52.2812Z" fill="#F2A5A9"/>
<path d="M277.472 50.6064L274.709 50.9799L274.48 47.6544L277.243 47.2808C277.45 47.2554 277.661 47.274 277.861 47.3354C278.061 47.3969 278.245 47.4998 278.402 47.6375C278.559 47.7751 278.686 47.9444 278.773 48.1342C278.86 48.324 278.906 48.53 278.908 48.7388C278.945 49.1728 278.818 49.6049 278.552 49.9504C278.287 50.2959 277.902 50.5299 277.472 50.6064Z" fill="#FFC7C7"/>
<path d="M277.364 48.3411L276.157 48.4736L276.23 49.8472L277.436 49.7147C277.613 49.6852 277.773 49.5913 277.884 49.451C277.996 49.3108 278.051 49.1343 278.039 48.9556C278.038 48.8701 278.019 48.7858 277.984 48.7079C277.949 48.63 277.898 48.5601 277.835 48.5026C277.771 48.445 277.697 48.401 277.616 48.3732C277.535 48.3454 277.449 48.3345 277.364 48.3411Z" fill="#F2A5A9"/>
<path d="M266.951 62.8723C260.411 63.1494 257.636 58.7515 257.528 53.233V52.8112C257.419 47.2446 260.435 38.3523 265.599 37.9426C270.763 37.545 276.121 45.8348 276.229 51.4015V51.8232C276.265 57.3056 274.299 62.4023 266.951 62.8723Z" fill="#FFC7C7"/>
<path d="M267.446 59.2457C266.958 59.3292 266.458 59.312 265.978 59.195C265.497 59.0781 265.045 58.8639 264.651 58.5658C264.256 58.2677 263.927 57.892 263.683 57.4618C263.44 57.0316 263.287 56.5562 263.235 56.0648V55.7997L271.476 55.0647V55.3298C271.416 56.3675 270.969 57.3451 270.223 58.07C269.477 58.7948 268.486 59.2143 267.446 59.2457Z" fill="white"/>
<path d="M264.96 50.9678C264.96 51.3775 264.731 51.7028 264.429 51.7028C264.128 51.7028 263.886 51.3775 263.886 50.9678C263.886 50.5581 264.128 50.2328 264.417 50.2328C264.707 50.2328 264.96 50.5581 264.96 50.9678Z" fill="#000128"/>
<path d="M269.859 50.4498C269.859 50.8594 269.617 51.1848 269.316 51.1848C269.014 51.1848 268.785 50.8474 268.785 50.4498C268.785 50.0522 269.026 49.7027 269.328 49.7148C269.629 49.7268 269.859 50.0401 269.859 50.4498Z" fill="#000128"/>
<path d="M268.061 53.968L266.143 54.0644C266.082 54.0576 266.023 54.0369 265.972 54.0039C265.92 53.9708 265.877 53.9263 265.845 53.8738C265.814 53.8214 265.795 53.7623 265.79 53.7014C265.785 53.6404 265.794 53.5791 265.817 53.5222L266.565 51.1124C266.583 51.0498 266.621 50.9949 266.673 50.9558C266.726 50.9167 266.789 50.8955 266.854 50.8955C266.92 50.8955 266.983 50.9167 267.035 50.9558C267.088 50.9949 267.126 51.0498 267.144 51.1124L268.35 53.3897C268.447 53.6307 268.302 53.956 268.061 53.968Z" fill="#F2A5A9"/>
<path d="M261.883 48.9074C261.352 49.3653 262.052 47.4856 262.812 47.1964C263.142 47.0442 263.519 47.0285 263.86 47.1527C264.201 47.2768 264.48 47.5308 264.634 47.8591C263.622 47.875 262.648 48.2461 261.883 48.9074Z" fill="#000128"/>
<path d="M270.764 47.4615C271.379 47.7868 270.269 46.112 269.473 46.0036C269.116 45.9319 268.746 46.0029 268.441 46.2012C268.137 46.3995 267.922 46.7093 267.844 47.0639C268.834 46.8536 269.866 46.9942 270.764 47.4615Z" fill="#000128"/>
<path d="M274.685 40.8827C274.628 40.7389 274.563 40.5982 274.492 40.461C275.155 40.1598 276.338 32.6291 275.095 32.9303C259.808 36.6535 260.725 29.5806 255.983 40.8466C255.932 40.9561 255.906 41.0753 255.906 41.196C255.906 41.3167 255.932 41.4359 255.983 41.5454C255.895 41.7249 255.818 41.91 255.754 42.0997C255.265 43.495 255.133 44.99 255.368 46.4494C255.464 47.1242 256.707 51.0402 257.347 51.1004C257.636 51.1004 259.193 46.0759 260.134 43.2926C261.868 43.5209 263.624 43.5209 265.358 43.2926C267.379 42.9937 269.364 42.489 271.282 41.7864C272.598 43.5576 275.373 47.088 275.831 47.1001C276.29 47.1121 275.143 41.8346 274.685 40.8827Z" fill="#000128"/>
<path d="M256.116 74.7769L258.964 69.7404L267.518 79.5965L263.5 87.9948L256.116 74.7769Z" fill="white"/>
<path d="M278.642 74.7769L275.783 69.7404L267.228 79.5965L271.982 87.8502L278.642 74.7769Z" fill="white"/>
<path d="M256.816 71.7887C255.211 72.0779 259.893 183.665 259.893 183.665L237.076 184.099L237.752 87.5369C237.726 84.7262 238.618 81.9837 240.295 79.7262C241.972 77.4687 244.341 75.8198 247.043 75.0299L256.816 71.7887Z" fill="white"/>
<path d="M276.374 70.1741L273.442 181.472H298.02L295.679 78.0662L276.374 70.1741Z" fill="white"/>
<path d="M255.308 72.9575L250.337 88.1394L254.282 91.2119L251.217 98.2245L258.819 128.01" stroke="#002439" stroke-width="0.51" stroke-miterlimit="10"/>
<path d="M280.319 71.6321L283.541 85.2235L279.439 89.5973L282.66 94.1278L275.204 127.576" stroke="#002439" stroke-width="0.51" stroke-miterlimit="10"/>
<path d="M290.998 106.562H281.635V108.298H290.998V106.562Z" stroke="#002439" stroke-width="0.43" stroke-miterlimit="10"/>
<path d="M301.275 153.001L299.935 155.275L302.212 156.614L303.552 154.34L301.275 153.001Z" fill="#223666"/>
<path d="M277.363 150.292L272.851 157.944C272.429 158.661 272.668 159.584 273.386 160.006L273.396 160.012C274.114 160.435 275.038 160.196 275.461 159.479L279.973 151.827C280.395 151.11 280.156 150.187 279.438 149.765L279.428 149.758C278.71 149.336 277.786 149.575 277.363 150.292Z" fill="#3E84C2"/>
<path d="M273.575 153.277L273.442 153.506C273.305 153.736 273.216 153.991 273.178 154.255C273.14 154.52 273.156 154.79 273.223 155.048C273.29 155.307 273.408 155.55 273.57 155.763C273.732 155.976 273.934 156.155 274.166 156.289L276.374 152.542C276.142 152.406 275.886 152.317 275.619 152.28C275.353 152.243 275.081 152.259 274.821 152.328C274.561 152.396 274.317 152.515 274.103 152.678C273.889 152.841 273.709 153.044 273.575 153.277ZM274.781 154.145C274.736 154.22 274.669 154.28 274.59 154.318C274.51 154.355 274.421 154.369 274.334 154.356C274.247 154.343 274.165 154.305 274.1 154.246C274.035 154.187 273.988 154.11 273.966 154.025C273.944 153.94 273.948 153.85 273.978 153.767C274.007 153.684 274.06 153.611 274.13 153.559C274.201 153.506 274.285 153.475 274.373 153.47C274.461 153.465 274.548 153.486 274.624 153.53C274.727 153.591 274.802 153.688 274.834 153.803C274.865 153.918 274.851 154.04 274.793 154.145H274.781Z" fill="#506CA6"/>
<path d="M281.568 144.602L269.9 164.392C269.254 165.487 269.62 166.898 270.716 167.542L299.527 184.483C300.623 185.128 302.036 184.763 302.682 183.668L314.35 163.878C314.996 162.783 314.63 161.372 313.534 160.727L284.723 143.786C283.627 143.141 282.214 143.506 281.568 144.602Z" fill="#BDC9D1"/>
<path d="M278.678 151.877L274.87 158.335L276.929 159.546L280.736 153.088L278.678 151.877Z" fill="#506CA6"/>
<path d="M273.022 157.674L277.179 150.624C277.429 150.2 277.838 149.893 278.315 149.769C278.792 149.646 279.298 149.717 279.723 149.967L280.763 150.578L274.72 160.826L273.681 160.215C273.256 159.965 272.948 159.557 272.825 159.081C272.701 158.604 272.772 158.098 273.022 157.674Z" fill="#223666"/>
<path d="M304.33 165.495C304.065 167.326 303.884 168.435 303.884 168.435C303.884 168.435 301.809 178.917 295.305 184.099C294.352 184.858 297.344 182.508 297.344 182.508C297.344 182.508 293.109 185.822 292.289 185.942C291.468 186.063 295.607 182.183 295.607 182.183C295.607 182.183 291.106 186.292 290.274 185.966C289.441 185.641 293.592 180.532 293.592 180.532C293.592 180.532 289.755 185.267 288.911 185.002C288.066 184.737 294.256 171.206 292.035 172.459C291.299 172.881 287.595 176.255 286.449 175.616C285.303 174.977 292.566 166.856 292.566 166.856C292.566 166.856 292.989 163.242 292.965 162.904L304.33 165.495Z" fill="#FFC7C7"/>
<path d="M288.367 93.3206C287.907 96.4674 288.151 99.6769 289.079 102.719C290.829 108.43 293.688 118.937 294.062 125.431C295.052 142.3 290.889 167.001 291.758 166.591L303.823 170.073C303.823 170.073 309.723 146.626 309.325 126.697C309.096 114.575 300.204 79.2472 294.919 77.8013C291.384 76.7771 289.32 86.7779 288.367 93.3206Z" fill="#53C0D7"/>
<path d="M287.112 93.3204C286.626 96.4694 286.886 99.6885 287.873 102.719C289.719 108.43 292.699 118.949 293.157 125.443C294.219 142.312 288.15 161.169 289.067 160.771L308.372 164.278C311.188 151.421 312.56 138.291 312.462 125.13C312.197 113.009 299.576 79.2711 294.026 77.8132C290.25 76.777 288.102 86.7777 287.112 93.3204Z" fill="white" stroke="white" stroke-miterlimit="10"/>
<path d="M261.232 101.285C261.232 100.57 261.02 99.8712 260.622 99.2768C260.224 98.6823 259.659 98.219 258.997 97.9454C258.336 97.6719 257.608 97.6003 256.906 97.7397C256.204 97.8792 255.559 98.2235 255.053 98.729C254.546 99.2345 254.202 99.8786 254.062 100.58C253.922 101.281 253.994 102.008 254.268 102.668C254.542 103.329 255.006 103.893 255.601 104.291C256.197 104.688 256.896 104.9 257.612 104.9C258.572 104.9 259.493 104.519 260.172 103.841C260.851 103.163 261.232 102.244 261.232 101.285Z" fill="#081D06"/>
<path d="M257.576 103.261C258.669 103.261 259.555 102.376 259.555 101.285C259.555 100.194 258.669 99.3088 257.576 99.3088C256.483 99.3088 255.597 100.194 255.597 101.285C255.597 102.376 256.483 103.261 257.576 103.261Z" fill="#399AD4"/>
<path d="M269.967 113.141L269.714 112.756C269.19 111.92 269.017 110.911 269.231 109.948L272.067 97.1161C272.234 96.3358 272.554 95.5964 273.01 94.9408C273.465 94.2852 274.047 93.7266 274.72 93.2972C275.394 92.8679 276.146 92.5764 276.933 92.4398C277.72 92.3032 278.527 92.3241 279.306 92.5013V92.5013C280.087 92.6681 280.828 92.9882 281.484 93.4431C282.141 93.898 282.7 94.4786 283.13 95.1512C283.56 95.8238 283.852 96.575 283.989 97.3611C284.126 98.1473 284.105 98.9528 283.927 99.7308L281.116 112.479C281.006 112.979 280.795 113.452 280.494 113.866C280.193 114.281 279.809 114.629 279.366 114.889L279.113 115.045" stroke="#081D06" stroke-width="1.02" stroke-miterlimit="10"/>
<path d="M271.065 113.093L269.593 114.033C269.538 113.948 269.501 113.853 269.483 113.753C269.465 113.653 269.467 113.551 269.49 113.452C269.512 113.353 269.555 113.26 269.614 113.177C269.673 113.095 269.748 113.025 269.835 112.973L270.003 112.864C270.175 112.755 270.383 112.718 270.581 112.761C270.78 112.804 270.954 112.923 271.065 113.093Z" fill="#081D06"/>
<path d="M279.028 116.118L278.087 114.66C278.172 114.604 278.266 114.566 278.366 114.547C278.465 114.528 278.567 114.53 278.666 114.551C278.765 114.572 278.859 114.613 278.942 114.671C279.025 114.729 279.095 114.803 279.149 114.888L279.258 115.057C279.313 115.142 279.352 115.236 279.37 115.335C279.389 115.435 279.388 115.537 279.366 115.635C279.345 115.734 279.304 115.828 279.246 115.911C279.188 115.993 279.114 116.064 279.028 116.118Z" fill="#081D06"/>
<path d="M259.181 69.4512C259.181 69.4512 253.474 70.4753 254.572 80.5484C255.669 90.6215 256.985 98.0678 256.985 98.0678" stroke="#081D06" stroke-width="1.02" stroke-miterlimit="10"/>
<path d="M275.12 67.909C275.12 67.909 285.436 66.5233 279.656 92.3808" stroke="#081D06" stroke-width="1.02" stroke-miterlimit="10"/>
<path d="M331.49 29.2552H324.709V50.6304H331.49V29.2552Z" fill="#55C1BB"/>
<path d="M338.802 43.3408V36.5692H317.397V43.3408H338.802Z" fill="#55C1BB"/>
<path d="M74.469 121.72H70.0047V135.794H74.469V121.72Z" fill="#55C1BB"/>
<path d="M79.2827 130.986V126.528H65.1901V130.986H79.2827Z" fill="#55C1BB"/>
<path d="M11.1364 200.365C-8.68731 192.364 2.21997 174.423 11.1364 182.906C20.1012 174.423 30.9602 192.364 11.1364 200.365Z" fill="#F7B5B0"/>
<path d="M378.738 114.78C363.68 108.755 371.957 95.0677 378.738 101.526C385.519 95.0677 393.808 108.707 378.738 114.78Z" fill="#F7B5B0"/>
<path d="M200.277 12.8926C187.282 7.65121 194.425 -4.09669 200.277 1.45796C206.116 -4.09669 213.259 7.65121 200.277 12.8926Z" fill="#FFD0CA"/>
<path d="M387.208 202.088C390.407 202.088 393 199.499 393 196.304C393 193.11 390.407 190.521 387.208 190.521C384.01 190.521 381.417 193.11 381.417 196.304C381.417 199.499 384.01 202.088 387.208 202.088Z" fill="#DAF0F5"/>
<path d="M98.5758 54.7392C100.475 54.7392 102.014 53.2018 102.014 51.3052C102.014 49.4087 100.475 47.8712 98.5758 47.8712C96.6767 47.8712 95.1371 49.4087 95.1371 51.3052C95.1371 53.2018 96.6767 54.7392 98.5758 54.7392Z" fill="#DAF0F5"/>
<path d="M22.5506 89.4768C26.049 89.4768 28.885 86.6446 28.885 83.151C28.885 79.6574 26.049 76.8252 22.5506 76.8252C19.0522 76.8252 16.2162 79.6574 16.2162 83.151C16.2162 86.6446 19.0522 89.4768 22.5506 89.4768Z" fill="#DAF0F5"/>
<path d="M208.433 215.354C210.765 215.354 212.656 213.466 212.656 211.137C212.656 208.808 210.765 206.92 208.433 206.92C206.101 206.92 204.21 208.808 204.21 211.137C204.21 213.466 206.101 215.354 208.433 215.354Z" fill="white"/>
<path d="M337.824 270.828C340.156 270.828 342.047 268.94 342.047 266.611C342.047 264.282 340.156 262.394 337.824 262.394C335.492 262.394 333.601 264.282 333.601 266.611C333.601 268.94 335.492 270.828 337.824 270.828Z" fill="white"/>
<path d="M65.1906 268.045C68.689 268.045 71.525 265.213 71.525 261.719C71.525 258.225 68.689 255.393 65.1906 255.393C61.6922 255.393 58.8561 258.225 58.8561 261.719C58.8561 265.213 61.6922 268.045 65.1906 268.045Z" stroke="white" stroke-miterlimit="10"/>
<path d="M200.397 112.888C202.476 112.888 204.162 111.205 204.162 109.129C204.162 107.053 202.476 105.37 200.397 105.37C198.318 105.37 196.633 107.053 196.633 109.129C196.633 111.205 198.318 112.888 200.397 112.888Z" stroke="white" stroke-miterlimit="10"/>
<path d="M331.489 139.674C334.988 139.674 337.824 136.841 337.824 133.348C337.824 129.854 334.988 127.022 331.489 127.022C327.991 127.022 325.155 129.854 325.155 133.348C325.155 136.841 327.991 139.674 331.489 139.674Z" stroke="white" stroke-miterlimit="10"/>
</g>
<defs>
<clipPath id="clip0_45_4">
<rect width="393" height="311" fill="white"/>
</clipPath>
</defs>
</svg>
