<?xml version="1.0" encoding="UTF-8"?><svg id="b" xmlns="http://www.w3.org/2000/svg" width="420" height="120" viewBox="0 0 420 120"><defs><style>.d,.e{fill-rule:evenodd;}.d,.f{fill:#006540;}.e{fill:#bc9b6a;}</style></defs><g id="c"><path class="f" d="M260.87,119.05h7.58v-36.61h-7.58v36.61ZM274.66,89.4h11.33v29.65h7.58v-29.65h11.32v-6.96h-30.23v6.96ZM342.38,107.86c-1.04-3.08-8.58-25.41-8.58-25.41h-8.26l13.34,36.62h6.95l13.42-36.62h-8.34s-7.48,22.34-8.52,25.41h0ZM412.47,82.44v23.89c0,3.42-.35,4.71-.56,5.17-.31.69-.99,1.61-3.37,1.61-.97.11-1.95-.19-2.69-.84-.64-.92-.94-2.04-.84-3.15v-3.96h-7.3v3.9c0,3.97,1.09,6.82,3.27,8.48,2.12,1.59,4.72,2.42,7.37,2.36,4.93,0,8.36-1.68,10.2-5.05,1.06-2.29,1.55-4.81,1.44-7.33v-25.08h-7.52ZM311.9,119.05h7.62v-36.61h-7.62v36.61ZM372.37,103.67h18.52v-6.92h-18.52v-7.19h20.02v-7.11h-27.47v36.62h27.74v-6.97h-20.29v-8.43ZM168.33,100.11c-1.71-1.17-3.63-1.98-5.66-2.39l-4.56-1.07c-3.83-.92-5.1-1.45-5.51-1.68-.84-.44-1.33-1.35-1.23-2.3,0-1.09.44-2.13,1.25-2.87.84-.84,2.33-1.25,4.48-1.25,2.68,0,4.55.68,5.57,2.04.65,1.04,1.03,2.22,1.11,3.44l.15,1.32h7.13v-1.5c0-4.21-1.42-7.4-4.21-9.4-2.83-1.95-6.2-2.95-9.63-2.87-4.12,0-7.38,1.12-9.68,3.31-2.34,2.2-3.62,5.29-3.53,8.5-.15,2.99,1.28,5.84,3.76,7.51,2.05,1.18,4.29,2.01,6.62,2.43l4.41,1.03c1.68.32,3.29.92,4.77,1.77.67.48,1,1.35,1,2.68,0,1.8-.91,2.94-2.92,3.67-1.28.44-2.63.66-3.98.64-3.16,0-5.26-.84-6.42-2.64-.69-1.18-1.05-2.52-1.06-3.88l-.08-1.41h-7.2v1.48c-.05,4.05,1.25,7.32,3.88,9.72s6.14,3.59,10.58,3.59c3.51.07,6.96-.84,9.99-2.62,3.12-1.88,4.68-5.01,4.68-9.25-.02-3.45-1.25-6.16-3.7-8.02h0ZM190.38,82.44l-13.78,36.62h7.89s3.37-9.32,3.65-10.1h11.06l3.51,10.1h8.19l-13.29-36.62h-7.22ZM190.56,102.28l1.55-4.29,1.68-4.57,3.09,8.86h-6.32ZM233.62,107.68c-1.03-3.06-8.57-25.24-8.57-25.24h-9.1v36.62h7.35v-20.36c1.82,5.33,6.97,20.36,6.97,20.36h6.66s5.1-14.99,6.93-20.33v20.33h7.34v-36.62h-9.05s-7.48,22.18-8.53,25.24h0Z"/><path class="f" d="M291.36,14.12c-.33-7.92-9.24-14.12-20.26-14.12s-18.97,5.82-18.97,14.15v.79h39.28l-.06-.82ZM259.19,9.91c1.88-2.68,6.2-4.4,11.85-4.4s10.42,1.68,12.94,4.4h-24.79ZM419.65,20.61l-5.42-5.41-.56.56-13.66,13.63c-1.68-5.44-6.78-9.11-12.48-8.98-9.26,0-13.42,7.23-13.42,14.39,0,5.05,2.85,10.55,9.11,10.55,2.34.06,4.6-.85,6.24-2.52,1.54-1.7,2.37-3.93,2.32-6.23v-.65c-.18-4.68-2.86-6.68-5.15-7.57h.93c4.8,0,5.51,3.67,5.51,5.89v37.99h20.96v-34.05c0-4.02-1.02-6.98-3.01-9.12l8.65-8.47ZM383.23,39.54c-1.57.06-2.89-1.17-2.94-2.74,0-.1,0-.21,0-.31-.11-1.57,1.07-2.93,2.63-3.04.1,0,.2,0,.3,0,1.93,0,2.8,1.53,2.8,3.05s-.87,3.05-2.8,3.05ZM406.25,64.46h-5.5v-30.29c-.01-1.19-.16-2.38-.43-3.53l1.52.58c3.65,1.42,4.38,3.84,4.38,7.57l.03,25.67ZM347.07,20.4c-9.61,0-16.84,7.45-16.84,17.35v1.79h7.89v-1.78c0-4.27,2.35-9.25,8.97-9.25,5.38,0,8.98,3.67,8.98,9.11v17.33l-1.08-.08c-5.75,0-8.76,4.52-8.76,8.98s3.01,8.99,8.76,8.99c5.11,0,8.68-3.73,8.68-9.06v-26.18c-.02-9.97-7-17.2-16.6-17.2h0ZM354.95,66.73c-1.63-.17-2.81-1.63-2.63-3.26.15-1.39,1.24-2.48,2.63-2.63,1.63.17,2.81,1.63,2.63,3.26-.15,1.39-1.24,2.48-2.63,2.63ZM315.38,54.68l-.92.15V21.03h-7.91v42.75c-.17,4.83,3.61,8.88,8.44,9.06.13,0,.26,0,.38,0,6.06,0,8.81-4.68,8.81-9.03s-3.02-9.14-8.81-9.14ZM315.38,66.71c-1.63-.17-2.81-1.63-2.63-3.26.15-1.39,1.24-2.48,2.63-2.63,1.63.17,2.81,1.63,2.63,3.26-.15,1.39-1.24,2.48-2.63,2.63ZM236.93,14.12C236.58,6.2,227.7,0,216.65,0s-18.97,5.82-18.97,14.15v.79h39.28l-.03-.82ZM204.78,9.91c1.87-2.68,6.19-4.4,11.85-4.4s10.43,1.68,12.94,4.4h-24.79ZM229.27,63.35l-17.23-6.91v-27.12c0-5.25-3.63-8.92-8.83-8.92-5.74,0-8.73,4.52-8.73,9.04s3.01,8.99,8.75,8.99l1.09-.08v15.55l-.46-.05c-2.42-.23-4.82.61-6.57,2.31-1.96,1.82-3.06,4.38-3.03,7.06,0,.08.27,9.48,9.26,9.63,5.25,0,8.17-3.96,8.61-8.21l18.24,7.62h6.69V21.03h-7.75l-.03,42.32ZM203.17,32.45c-1.54,0-2.79-1.23-2.8-2.77,0-.08,0-.16,0-.24-.14-1.53.98-2.89,2.51-3.03.1,0,.19-.01.29-.01,1.57-.07,2.89,1.14,2.96,2.71,0,.11,0,.23,0,.34.09,1.56-1.1,2.91-2.66,3-.09,0-.18,0-.27,0h-.03ZM203.17,66.62c-1.73.02-3.16-1.36-3.18-3.1s1.36-3.16,3.1-3.18c1.73-.02,3.16,1.36,3.18,3.1,0,.01,0,.03,0,.04.11,1.62-1.11,3.02-2.73,3.13-.11,0-.22,0-.33,0h-.04ZM150.9,40.29c0-5.41,3.22-11.95,12.28-11.95s12.12,6.18,12.12,11.48v1.68c-4.1-3.15-9.35-4.41-14.43-3.46-.11,0-13.28,2.34-13.28,15.56v10.17c0,4.5,2.99,9.06,8.69,9.06s8.81-4.58,8.81-9.1-2.75-9.04-8.81-9.04l-.93.08v-1.68c0-3,3.49-7.64,8.12-7.64,10.3,0,11.84,8.31,11.84,13.27v13.46h7.75v-32.37c0-6.92-3.08-11.06-4.39-12.52.82-3.35.99-6.82.51-10.24l-.11-.66h-7.27l.21,2.62v.37l-.07,2.62v.19c-2.77-1.2-5.76-1.82-8.78-1.82-13.24,0-20.21,10.36-20.21,19.88h7.96ZM156.27,60.82c1.63.17,2.81,1.63,2.63,3.26-.15,1.39-1.24,2.48-2.63,2.63-1.63-.17-2.81-1.63-2.63-3.26.15-1.39,1.24-2.48,2.63-2.63ZM280.31,20.58l-.9-.23-7.04,4.49-6.93-4.52-.36.13-.43.14c-11.62,3.94-12.59,12.24-12.59,20.41v31.25h7.32l19.47-23.34c2-2.83,2.25-6.53.66-9.6-1.48-3.13-4.68-5.1-8.15-5.01-4.2-.08-7.79,3.02-8.32,7.18-.1.59-.15,1.19-.15,1.78-.11,3.15,1.53,6.1,4.25,7.69l-7.34,8.61v-19.52c0-5.72.16-8.46,5.51-11.16l7.05,4,7.03-3.99c4.07,2.15,4.57,4.38,4.57,8.24v35.11h7.89v-31.25c-.04-8.19-.04-17.45-11.55-20.43h0ZM271.49,40.25c1.68,0,3.05,1.36,3.05,3.05s-1.36,3.05-3.05,3.05c-1.54.02-2.8-1.22-2.82-2.76,0-.1,0-.19.01-.29-.14-1.53.98-2.89,2.51-3.03.1,0,.19-.01.29-.01Z"/><path class="e" d="M40.93,116.62v-38.03H3.04v-37.64h37.89V4.95h37.86v36h37.89v37.64h-37.89v38.03h-37.86Z"/><path class="d" d="M83.16,82.97h36.99l-36.99,35.84v-35.84Z"/><path class="d" d="M37.19,83.14v35.85L.2,83.14h36.99Z"/><path class="d" d="M82.78,36.88V1.04l36.98,35.81-36.98.03Z"/><path class="d" d="M37.03,36.51l-37.03.07L37.03.65v35.86Z"/></g></svg>